<svg id="Layer_1" data-name="Layer 1" xmlns="http://www.w3.org/2000/svg" viewBox="0 0 152.34 64.12"><defs><style>.cls-1,.cls-4,.cls-5{fill:#00548b;}.cls-1,.cls-3,.cls-4,.cls-5,.cls-6,.cls-7{stroke:#00538b;}.cls-1,.cls-2,.cls-3,.cls-4,.cls-5,.cls-6,.cls-7{stroke-miterlimit:10;}.cls-1,.cls-2,.cls-3,.cls-6,.cls-7{stroke-width:2.34px;}.cls-2{fill:#878787;stroke:#878787;}.cls-3{fill:#00538b;}.cls-4{stroke-width:0.1px;}.cls-5{stroke-width:0.59px;}.cls-6,.cls-7{fill:none;}.cls-7{stroke-linecap:round;}</style></defs><title>kompli-global-logotype-blue-silver</title><path class="cls-1" d="M353.26,273.92h.91v11.36l7.61-6.56h1.33l-5.41,4.61,5.79,7.74h-1.25L357,284l-2.81,2.38v4.66h-.91Z" transform="translate(-352.09 -258.06)"/><path class="cls-1" d="M370.81,278.43c3.63,0,5.67,3,5.67,6.46s-2,6.47-5.67,6.47-5.67-3-5.67-6.47S367.18,278.43,370.81,278.43Zm0,12.13c3.1,0,4.76-2.71,4.76-5.67s-1.66-5.67-4.76-5.67-4.76,2.72-4.76,5.67S367.71,290.56,370.81,290.56Z" transform="translate(-352.09 -258.06)"/><path class="cls-1" d="M414.22,274.41v16.66h-.91V274.41Z" transform="translate(-352.09 -258.06)"/><rect class="cls-1" x="65.65" y="20.66" width="0.91" height="12.35"/><path class="cls-1" d="M379.52,282.61c0-2.42,2.47-4.18,4.83-4.18s3.46,1.35,3.72,2.62h.05a3.91,3.91,0,0,1,3.92-2.62c2.23,0,3.87,1.3,3.87,4.21v8.43H395v-8.46c0-3.14-2.23-3.39-2.95-3.39-2.24,0-3.87,1.59-3.87,4.54v7.31h-.91v-8.46c0-3.1-2.12-3.4-2.91-3.39-2.44.06-3.92,1.65-3.92,3.57v8.28h-.91Z" transform="translate(-352.09 -258.06)"/><path class="cls-1" d="M404.66,278.43c3.8,0,5.55,3,5.55,6.49,0,3.75-1.78,6.44-5.55,6.44a4.4,4.4,0,0,1-4.49-2.86h-.05v9.69h-.91V285C399.21,280.41,402,278.43,404.66,278.43Zm4.64,6.49c0-2.81-1.32-5.7-4.64-5.7s-4.51,2.77-4.51,5.7,1,5.64,4.51,5.64C407.88,290.56,409.3,288,409.3,284.92Z" transform="translate(-352.09 -258.06)"/><path class="cls-2" d="M442.24,274.41v16.66h-.91V274.41Z" transform="translate(-352.09 -258.06)"/><path class="cls-2" d="M488.62,274.41v16.66h-.91V274.41Z" transform="translate(-352.09 -258.06)"/><path class="cls-2" d="M437.92,292.71c0,1,0,5.67-5.47,5.5-2.72,0-4.81-1-5-3.95h.94c.19,2.25,2,3.14,4,3.14,4.44,0,4.52-3.63,4.52-4.47v-4.35h-.05a4.76,4.76,0,0,1-4.59,2.89c-3.73,0-5.48-2.74-5.48-6.27,0-3.35,1.9-6.18,5.48-6.24a4.8,4.8,0,0,1,5,3C438.29,283.89,437.92,292.71,437.92,292.71Zm-10.11-7.51c0,3,1.55,5.46,4.54,5.46s4.61-2.59,4.61-5.46-1.5-5.42-4.61-5.42S427.81,282.51,427.81,285.2Z" transform="translate(-352.09 -258.06)"/><path class="cls-2" d="M451.39,278.25c3.73,0,5.82,3,5.82,6.63s-2.09,6.64-5.82,6.64-5.82-3-5.82-6.64S447.67,278.25,451.39,278.25Zm0,12.46c3.19,0,4.89-2.79,4.89-5.83s-1.7-5.82-4.89-5.82-4.88,2.79-4.88,5.82S448.21,290.71,451.39,290.71Z" transform="translate(-352.09 -258.06)"/><path class="cls-2" d="M484.5,291.06h-.92v-2.4h-.05a4.88,4.88,0,0,1-4.71,2.81c-2.39,0-4.24-.91-4.24-3.58,0-3,2.56-3.58,4.66-3.75,4.19-.29,4.42-.57,4.37-2.64,0-1.2-.64-2.49-3.53-2.49-2.27,0-3.78.3-3.9,2.5h-.94c.13-2.79,1.85-3.31,4.84-3.31,2.22,0,4.44.69,4.44,3.3Zm-.93-7.09c-.74.84-2.76.74-4.59,1-2.22.24-3.47,1-3.47,2.93,0,1.53,1.11,2.76,3.33,2.76a4.41,4.41,0,0,0,4.73-4.31Z" transform="translate(-352.09 -258.06)"/><path class="cls-2" d="M460.47,285V273.19h.91v8.26h.05a4.39,4.39,0,0,1,4.49-2.86c3.77,0,5.55,2.69,5.55,6.44,0,3.48-1.75,6.48-5.55,6.48C463.21,291.51,460.47,289.53,460.47,285Zm5.45-5.62c-3.48,0-4.51,2.72-4.51,5.65s1.22,5.69,4.51,5.69,4.64-2.88,4.64-5.69C470.56,282,469.14,279.38,465.92,279.38Z" transform="translate(-352.09 -258.06)"/><rect class="cls-3" x="69.62" y="27.08" width="2.26" height="0.91"/><path class="cls-4" d="M492.66,287.73a2.34,2.34,0,1,1,0,4.68,2.34,2.34,0,1,1,0-4.68Zm0,4.33a2,2,0,1,0-1.94-2A1.93,1.93,0,0,0,492.66,292.06Zm-.92-3.36h1.06c.65,0,1,.25,1,.78a.7.7,0,0,1-.72.74l.78,1.21h-.46l-.74-1.18h-.45v1.18h-.43Zm.43,1.21h.44c.38,0,.72,0,.72-.45s-.31-.42-.6-.42h-.56Z" transform="translate(-352.09 -258.06)"/><path class="cls-5" d="M398.29,301.53h2.45c2.12.05,3.24,1.22,3.24,3.53s-1.12,3.49-3.24,3.54h-2.45ZM399,308h1.43c2,0,2.91-.85,2.91-3s-.88-3-2.91-2.95H399Z" transform="translate(-352.09 -258.06)"/><path class="cls-5" d="M405.32,306.21a1.81,1.81,0,0,0,1.68,2c.91,0,1.29-.31,1.49-1.09h.63a1.82,1.82,0,0,1-2.12,1.61c-1.62,0-2.3-1.24-2.3-2.7s.68-2.7,2.3-2.7,2.3,1.44,2.25,2.87Zm3.3-.52a1.71,1.71,0,0,0-1.62-1.82,1.81,1.81,0,0,0-1.68,1.82Z" transform="translate(-352.09 -258.06)"/><path class="cls-5" d="M418.08,303.34c1.55,0,2.29,1.26,2.29,2.7s-.74,2.7-2.29,2.7a1.82,1.82,0,0,1-1.77-1.11h0v2.86h-.62v-5.21C415.67,303.41,417.26,303.34,418.08,303.34Zm0,.53c-1.38,0-1.79,1-1.79,2.17s.46,2.18,1.79,2.18,1.67-1.12,1.67-2.18S419.27,303.87,418.08,303.87Z" transform="translate(-352.09 -258.06)"/><path class="cls-5" d="M426.64,305.18c0-1.12,1.55-1.8,2.47-1.76V304a1.76,1.76,0,0,0-1.89,1.83v2.73h-.63S426.64,306,426.64,305.18Z" transform="translate(-352.09 -258.06)"/><path class="cls-5" d="M432,301.53h2.44c2.13.05,3.24,1.22,3.24,3.53s-1.11,3.49-3.24,3.54H432Zm.67,6.49h1.43c2,0,2.91-.85,2.91-3s-.88-3-2.91-2.95H432.7Z" transform="translate(-352.09 -258.06)"/><path class="cls-5" d="M442.8,306.84a2,2,0,0,1-2.08,1.92,1.85,1.85,0,0,1-2-2v-3.31h.62v3.32c0,.92.38,1.41,1.36,1.41s1.54-1,1.54-2.05v-2.68h.62S442.8,305.75,442.8,306.84Z" transform="translate(-352.09 -258.06)"/><path class="cls-5" d="M474.52,305.19a2,2,0,0,1,2.09-1.92,1.85,1.85,0,0,1,2,2v3.32H478v-3.33c0-.92-.37-1.4-1.36-1.4s-1.53,1-1.53,2v2.69h-.63S474.52,306.28,474.52,305.19Z" transform="translate(-352.09 -258.06)"/><path class="cls-5" d="M451.67,301.53h2.45c2.12.05,3.24,1.22,3.24,3.53s-1.12,3.49-3.24,3.54h-2.45Zm.68,6.49h1.43c2,0,2.91-.85,2.91-3s-.88-3-2.91-2.95h-1.43Z" transform="translate(-352.09 -258.06)"/><path class="cls-5" d="M458.34,303.49H459v5.11h-.63Z" transform="translate(-352.09 -258.06)"/><path class="cls-5" d="M460.17,301.53h.63v7.07h-.63Z" transform="translate(-352.09 -258.06)"/><path class="cls-5" d="M462,303.49h.63v5.11H462Z" transform="translate(-352.09 -258.06)"/><path class="cls-5" d="M468.14,308.18c0,1.52-.6,2.72-2.27,2.72-1,0-2-.46-2.11-1.55h.62a1.34,1.34,0,0,0,1.49,1c1.15,0,1.64-.94,1.64-2.19v-.69h0a1.79,1.79,0,0,1-1.63,1.05c-1.63,0-2.3-1.17-2.3-2.63a2.34,2.34,0,0,1,2.3-2.57,2.23,2.23,0,0,1,2.27,2.51Zm-.63-2.2c0-1-.46-2.11-1.64-2.11s-1.68,1.05-1.68,2.11.54,2,1.68,2S467.51,307,467.51,306Z" transform="translate(-352.09 -258.06)"/><path class="cls-5" d="M483.38,305.09a1.39,1.39,0,0,0-1.45-1.22,2.22,2.22,0,0,0,0,4.35,1.52,1.52,0,0,0,1.49-1.45H484a2.08,2.08,0,0,1-2.11,2,2.72,2.72,0,0,1,0-5.4,1.91,1.91,0,0,1,2.07,1.75Z" transform="translate(-352.09 -258.06)"/><path class="cls-5" d="M410.75,306.21a1.81,1.81,0,0,0,1.68,2c.91,0,1.3-.31,1.49-1.09h.63a1.82,1.82,0,0,1-2.12,1.61c-1.62,0-2.3-1.24-2.3-2.7s.68-2.7,2.3-2.7,2.3,1.44,2.25,2.87Zm3.3-.52a1.71,1.71,0,0,0-1.62-1.82,1.81,1.81,0,0,0-1.68,1.82Z" transform="translate(-352.09 -258.06)"/><path class="cls-5" d="M421.84,306.21a1.81,1.81,0,0,0,1.68,2c.91,0,1.29-.31,1.49-1.09h.62a1.81,1.81,0,0,1-2.11,1.61c-1.62,0-2.31-1.24-2.31-2.7s.69-2.7,2.31-2.7,2.29,1.44,2.25,2.87Zm3.3-.52a1.71,1.71,0,0,0-1.62-1.82,1.81,1.81,0,0,0-1.68,1.82Z" transform="translate(-352.09 -258.06)"/><path class="cls-5" d="M444.37,306.21a1.81,1.81,0,0,0,1.68,2c.91,0,1.3-.31,1.49-1.09h.63a1.82,1.82,0,0,1-2.12,1.61c-1.62,0-2.3-1.24-2.3-2.7s.68-2.7,2.3-2.7,2.3,1.44,2.25,2.87Zm3.3-.52a1.71,1.71,0,0,0-1.62-1.82,1.81,1.81,0,0,0-1.68,1.82Z" transform="translate(-352.09 -258.06)"/><path class="cls-5" d="M469.68,306.21a1.81,1.81,0,0,0,1.68,2c.91,0,1.3-.31,1.49-1.09h.63a1.82,1.82,0,0,1-2.12,1.61c-1.62,0-2.3-1.24-2.3-2.7s.68-2.7,2.3-2.7,2.3,1.44,2.25,2.87Zm3.3-.52a1.71,1.71,0,0,0-1.62-1.82,1.81,1.81,0,0,0-1.68,1.82Z" transform="translate(-352.09 -258.06)"/><path class="cls-5" d="M485.49,306.21a1.81,1.81,0,0,0,1.68,2c.91,0,1.3-.31,1.49-1.09h.63a1.82,1.82,0,0,1-2.12,1.61c-1.62,0-2.3-1.24-2.3-2.7s.68-2.7,2.3-2.7,2.3,1.44,2.25,2.87Zm3.3-.52a1.71,1.71,0,0,0-1.62-1.82,1.81,1.81,0,0,0-1.68,1.82Z" transform="translate(-352.09 -258.06)"/><path class="cls-6" d="M380.46,286.61" transform="translate(-352.09 -258.06)"/><path class="cls-7" d="M473.63,259.22a30.91,30.91,0,1,1-20.95,54.72" transform="translate(-352.09 -258.06)"/></svg>