<?xml version="1.0" encoding="UTF-8"?>
<svg width="122px" height="35px" viewBox="0 0 122 35" version="1.1" xmlns="http://www.w3.org/2000/svg" xmlns:xlink="http://www.w3.org/1999/xlink">
    <!-- Generator: Sketch 50.2 (55047) - http://www.bohemiancoding.com/sketch -->
    <title>Logo</title>
    <desc>Created with Sketch.</desc>
    <defs>
        <polygon id="path-1" points="0.0257516487 0.0876047904 14.6599844 0.0876047904 14.6599844 14.8518937 0.0257516487 14.8518937"></polygon>
    </defs>
    <g id="Page-1" stroke="none" stroke-width="1" fill="none" fill-rule="evenodd">
        <g id="New-logo-and-Nav-" transform="translate(-37.000000, -16.000000)">
            <g id="Logo" transform="translate(36.000000, 16.000000)">
                <path d="M15.0651378,5.6584675 C15.0651378,8.78351118 17.5922654,11.3173653 20.7085842,11.3173653 C23.8249029,11.3173653 26.3520306,8.78351118 26.3520306,5.6584675 C26.3520306,2.53385409 23.8249029,0 20.7085842,0 C17.5922654,0 15.0651378,2.53385409 15.0651378,5.6584675" id="Fill-1" fill="#FFFFFF"></path>
                <path d="M15.0651378,5.6584675 C15.0651378,8.78351118 17.5922654,11.3173653 20.7085842,11.3173653 C23.8249029,11.3173653 26.3520306,8.78351118 26.3520306,5.6584675 C26.3520306,2.53385409 23.8249029,0 20.7085842,0 C17.5922654,0 15.0651378,2.53385409 15.0651378,5.6584675" id="Fill-1" fill="#FFFFFF"></path>
                <g id="Group-7" transform="translate(0.956522, 8.907186)">
                    <mask id="mask-2" fill="white">
                        <use xlink:href="#path-1"></use>
                    </mask>
                    <g id="Clip-6"></g>
                    <path d="M0,7.46974925 C0,11.5472624 3.28118924,14.8518937 7.3297776,14.8518937 C11.3787952,14.8518937 14.6599844,11.5472624 14.6599844,7.46974925 C14.6599844,3.39310067 11.3787952,0.0876047904 7.3297776,0.0876047904 C3.28118924,0.0876047904 0,3.39310067 0,7.46974925" id="Fill-5" fill="#FFFFFF" mask="url(#mask-2)"></path>
                </g>
                <path d="M11.0938236,29.9700599 C11.0938236,32.7479173 13.3394106,35 16.1102204,35 C18.8801664,35 21.1266173,32.7479173 21.1266173,29.9700599 C21.1266173,27.1913363 18.8801664,24.9401198 16.1102204,24.9401198 C13.3394106,24.9401198 11.0938236,27.1913363 11.0938236,29.9700599" id="Fill-11" fill="#FFFFFF"></path>
                <path d="M15.0784601,13.2035928 L12.6614476,10.3470247 C13.6742827,11.156357 16.5447005,10.0093363 15.6615945,7.75449102 L18.5139106,10.6782522 C16.8571709,9.57430408 14.1768214,11.6951939 15.0784601,13.2035928" id="Fill-15" fill="#FFFFFF"></path>
                <path d="M15.6921874,24.9787805 L12.5261762,26.511976 C13.4356407,25.6263387 12.6678602,22.8437618 10.466774,23.4814891 L13.8702253,21.3772455 C12.4390859,22.7569933 13.8975222,25.1608661 15.6921874,24.9787805" id="Fill-16" fill="#FFFFFF"></path>
                <path d="M14.1911404,16.5299055 C14.1911404,19.7868524 11.5557229,22.426162 8.30474281,22.426162 C5.05462425,22.426162 2.41963748,19.7868524 2.41963748,16.5299055 C2.41963748,13.2733903 5.05462425,10.6323543 8.30474281,10.6323543 C11.5557229,10.6323543 14.1911404,13.2733903 14.1911404,16.5299055 Z M24.9934231,5.69341407 C24.9934231,8.0275737 23.1053821,9.92019389 20.7749459,9.92019389 C18.4462327,9.92019389 16.5577609,8.0275737 16.5577609,5.69341407 C16.5577609,3.35968606 18.4462327,1.46706587 20.7749459,1.46706587 C23.1053821,1.46706587 24.9934231,3.35968606 24.9934231,5.69341407 Z M24.9934231,5.69341407 C24.9934231,8.0275737 23.1053821,9.92019389 20.7749459,9.92019389 C18.4462327,9.92019389 16.5577609,8.0275737 16.5577609,5.69341407 C16.5577609,3.35968606 18.4462327,1.46706587 20.7749459,1.46706587 C23.1053821,1.46706587 24.9934231,3.35968606 24.9934231,5.69341407 Z M24.9934231,5.69341407 C24.9934231,8.0275737 23.1053821,9.92019389 20.7749459,9.92019389 C18.4462327,9.92019389 16.5577609,8.0275737 16.5577609,5.69341407 C16.5577609,3.35968606 18.4462327,1.46706587 20.7749459,1.46706587 C23.1053821,1.46706587 24.9934231,3.35968606 24.9934231,5.69341407 Z M19.5868972,30.1261264 C19.5868972,32.066224 18.0171912,33.6377246 16.0821968,33.6377246 C14.1472024,33.6377246 12.5787887,32.066224 12.5787887,30.1261264 C12.5787887,28.1881869 14.1472024,26.6166863 16.0821968,26.6166863 C18.0171912,26.6166863 19.5868972,28.1881869 19.5868972,30.1261264 Z" id="Stroke-17" stroke="#4ABEE0" stroke-width="0.5"></path>
                <path d="M38.8930226,23.4783422 C38.3371917,27.3371547 34.7146336,28.8173653 30.4401009,28.8173653 C24.2096443,28.8173653 21.3356338,24.42547 21.3356338,19.5958084 C21.3356338,15.4221492 23.8233526,10.3742515 31.1405766,10.3742515 C35.2704645,10.3742515 38.4337647,12.4608654 38.6513757,15.4458706 L35.8503314,15.4458706 C35.4155385,13.1647418 33.3626125,12.3638236 30.9474307,12.3638236 C26.9626168,12.3638236 23.9920333,14.6695363 23.9920333,19.5958084 C23.9920333,24.5220804 26.9626168,26.8273618 30.9474307,26.8273618 C33.3385766,26.8273618 35.6567563,25.759471 36.0911199,23.4783422 L38.8930226,23.4783422" id="Fill-19" fill="#FFFFFF"></path>
                <path d="M54.0114911,21.7493281 L49.6573741,12.9269607 L45.2787499,21.7493281 L54.0114911,21.7493281 Z M54.9793115,23.7364177 L44.262345,23.7364177 L42.0128397,28.2934132 L39.2065474,28.2934132 L48.1813513,10.7934132 L51.133397,10.7934132 L60.1082008,28.2934132 L57.2292468,28.2934132 L54.9793115,23.7364177 Z" id="Fill-20" fill="#FFFFFF"></path>
                <polyline id="Fill-21" fill="#FFFFFF" points="75.3538103 10.7934132 77.8746062 10.7934132 77.8746062 28.2934132 74.4338684 28.2934132 63.7223161 13.3628884 63.6740794 13.3628884 63.6740794 28.2934132 61.1532835 28.2934132 61.1532835 10.7934132 64.5948827 10.7934132 75.3060043 25.723938 75.3538103 25.723938 75.3538103 10.7934132"></polyline>
                <path d="M83.2191594,26.3054621 L87.9721487,26.3054621 C93.7445285,26.3054621 95.2716747,22.9606214 95.2716747,19.5434132 C95.2716747,15.0109709 93.2341867,12.7809335 87.3661177,12.7809335 L83.2191594,12.7809335 L83.2191594,26.3054621 Z M80.6963294,10.7934132 L87.5113755,10.7934132 C95.2962435,10.7934132 97.9401935,14.041764 97.9401935,19.7618078 C97.9401935,25.1424138 94.6660748,28.2934132 87.8747354,28.2934132 L80.6963294,28.2934132 L80.6963294,10.7934132 Z" id="Fill-22" fill="#FFFFFF"></path>
                <path d="M102.23917,26.3054621 L106.992471,26.3054621 C112.765138,26.3054621 114.292677,22.9606214 114.292677,19.5434132 C114.292677,15.0109709 112.25524,12.7809335 106.386887,12.7809335 L102.23917,12.7809335 L102.23917,26.3054621 Z M99.716834,10.7934132 L106.532141,10.7934132 C114.316383,10.7934132 116.960698,14.041764 116.960698,19.7618078 C116.960698,25.1424138 113.68623,28.2934132 106.895492,28.2934132 L99.716834,28.2934132 L99.716834,10.7934132 Z" id="Fill-23" fill="#FFFFFF"></path>
                <polygon id="Fill-24" fill="#FFFFFF" points="119.88693 28.2934132 122.395128 28.2934132 122.395128 15.6137725 119.88693 15.6137725"></polygon>
                <path d="M122.813161,12.5746347 C122.813161,13.5584037 122.01819,14.3562874 121.03652,14.3562874 C120.054851,14.3562874 119.25988,13.5584037 119.25988,12.5746347 C119.25988,11.5904343 120.054851,10.7934132 121.03652,10.7934132 C122.01819,10.7934132 122.813161,11.5904343 122.813161,12.5746347" id="Fill-25" fill="#FFFFFF"></path>
            </g>
        </g>
    </g>
</svg>